<svg xmlns="http://www.w3.org/2000/svg" viewBox="0 0 480 100"><defs><style>.a{fill:#fb3}.b{fill:#02486a}</style></defs><path class="a" d="M80.72 10.94H15.34a7.93 7.93 0 0 0-7.93 7.92v62.37a7.93 7.93 0 0 0 7.93 7.93h65.38a7.94 7.94 0 0 0 7.94-7.93V18.86a7.94 7.94 0 0 0-7.94-7.92ZM70.43 68A3.42 3.42 0 0 1 67 71.43H29.06A3.42 3.42 0 0 1 25.63 68V32.11a3.44 3.44 0 0 1 3.43-3.43H67a3.44 3.44 0 0 1 3.43 3.43Z"/><rect class="a" x="40.16" y="42.17" width="15.76" height="15.76" rx="2.54" ry="2.54"/><path class="b" d="M250.22 13.37h12.57a4.11 4.11 0 0 1 3.88 2.76L289.85 83a2.85 2.85 0 0 1-2.69 3.79h-13.45a4.11 4.11 0 0 1-3.93-2.9l-2.66-8.59a4.11 4.11 0 0 0-3.93-2.9h-13.46a4.11 4.11 0 0 0-3.93 2.92l-2.58 8.54a4.11 4.11 0 0 1-3.93 2.92h-13.54a2.85 2.85 0 0 1-2.69-3.78l23.27-66.9a4.11 4.11 0 0 1 3.89-2.73ZM263 59l-6.5-22.77L249.67 59ZM321 82.71V17.48a4.11 4.11 0 0 1 4.11-4.11h12a4.11 4.11 0 0 1 4.11 4.11v19.88a1.38 1.38 0 0 0 2.46.86l18.65-23.32a4.11 4.11 0 0 1 3.21-1.54h12.16a4.11 4.11 0 0 1 3.19 6.7l-19.3 23.78a4.11 4.11 0 0 0-.17 5l22.2 31.54a4.11 4.11 0 0 1-3.36 6.48h-13.08a4.11 4.11 0 0 1-3.4-1.86l-16-23.77a1.38 1.38 0 0 0-2.18-.23l-3.42 3.55a3.51 3.51 0 0 0-1 2.44v15.72a4.11 4.11 0 0 1-4.11 4.11h-12a4.11 4.11 0 0 1-4.07-4.11ZM464.08 33.65a4.11 4.11 0 0 1-5.52 1.74q-1.4-.71-2.83-1.33a58.7 58.7 0 0 0-6.26-2.33 22.59 22.59 0 0 0-6.78-1.09 9.41 9.41 0 0 0-4.29.83 2.89 2.89 0 0 0-1.6 2.79 3.22 3.22 0 0 0 .93 2.38 8.83 8.83 0 0 0 2.69 1.71 33.6 33.6 0 0 0 4.29 1.5q2.53.72 5.74 1.76A75.43 75.43 0 0 1 459.6 45a28.45 28.45 0 0 1 7 4.4 17 17 0 0 1 4.4 6.18 22.3 22.3 0 0 1 1.55 8.79 23.17 23.17 0 0 1-2.43 11.12 20 20 0 0 1-6.41 7.19 27.06 27.06 0 0 1-9 3.88 43.67 43.67 0 0 1-10.09 1.19 57.08 57.08 0 0 1-8.28-.62 71.38 71.38 0 0 1-8.43-1.76 73.63 73.63 0 0 1-8.07-2.69q-1.81-.72-3.49-1.54a4.13 4.13 0 0 1-2-5.54l5-10.23a4.08 4.08 0 0 1 5.61-1.75q1.89 1 3.85 1.89a53.56 53.56 0 0 0 7.5 2.79 29.89 29.89 0 0 0 8.69 1.24q3.31 0 4.6-.88a2.69 2.69 0 0 0 1.29-2.33 3.33 3.33 0 0 0-1.29-2.64 11.87 11.87 0 0 0-3.6-1.9q-2.28-.83-5.22-1.66t-6.26-2a53.77 53.77 0 0 1-8.38-3.57 22.7 22.7 0 0 1-5.79-4.34 15.52 15.52 0 0 1-3.35-5.5 21.57 21.57 0 0 1-1.09-7.14 24.67 24.67 0 0 1 2.22-10.76 22.09 22.09 0 0 1 6.05-7.76 27.08 27.08 0 0 1 8.74-4.71 33.3 33.3 0 0 1 10.4-1.6 39.46 39.46 0 0 1 7.86.78 63.24 63.24 0 0 1 7.4 2 71.16 71.16 0 0 1 6.67 2.59l1.72.78a4.1 4.1 0 0 1 1.9 5.63ZM161 87.37a35.29 35.29 0 0 1-15.19-3.2 37.55 37.55 0 0 1-11.68-8.42 38.11 38.11 0 0 1-7.54-11.94A36.94 36.94 0 0 1 123.87 50a36 36 0 0 1 2.79-14 37 37 0 0 1 7.8-11.83A38 38 0 0 1 146.35 16a36.68 36.68 0 0 1 15-3 35.31 35.31 0 0 1 15.19 3.2 37.2 37.2 0 0 1 11.68 8.47 38 38 0 0 1 7.49 12 37.34 37.34 0 0 1 2.64 13.75 35.65 35.65 0 0 1-2.79 13.9 37.65 37.65 0 0 1-7.75 11.78A38.13 38.13 0 0 1 176 84.27a36.15 36.15 0 0 1-15 3.1Zm-16.67-37.21a25 25 0 0 0 1 7.18 18.74 18.74 0 0 0 3.1 6.15 15.62 15.62 0 0 0 5.22 4.34 17.67 17.67 0 0 0 15-.05 15.28 15.28 0 0 0 5.22-4.44 19.13 19.13 0 0 0 3-6.25 26.39 26.39 0 0 0 1-7.13 25 25 0 0 0-1-7.18 17.73 17.73 0 0 0-3.15-6.1 15.94 15.94 0 0 0-5.27-4.24 16.12 16.12 0 0 0-7.39-1.6 15.94 15.94 0 0 0-7.49 1.65 15.41 15.41 0 0 0-5.22 4.39 18.6 18.6 0 0 0-3 6.2 25.79 25.79 0 0 0-1.02 7.08Z"/></svg>